G04*
G04 #@! TF.GenerationSoftware,Altium Limited,Altium Designer,25.3.3 (18)*
G04*
G04 Layer_Physical_Order=2*
G04 Layer_Color=16711680*
%FSLAX44Y44*%
%MOMM*%
G71*
G04*
G04 #@! TF.SameCoordinates,66C2ACA9-6224-4F19-AAD4-62AA9E2CECE1*
G04*
G04*
G04 #@! TF.FilePolarity,Positive*
G04*
G01*
G75*
%ADD18C,0.5080*%
%ADD19C,0.3810*%
%ADD20C,1.8000*%
%ADD21C,1.5000*%
%ADD22C,3.5560*%
%ADD23R,1.8000X1.8000*%
%ADD24C,2.0000*%
%ADD25C,3.0000*%
G36*
X981003Y10997D02*
X918692D01*
X917234Y14517D01*
X923670Y20953D01*
Y43047D01*
X908047Y58670D01*
X885953D01*
X870330Y43047D01*
Y20953D01*
X876766Y14517D01*
X875308Y10997D01*
X10997D01*
Y35898D01*
X14807Y37476D01*
X28953Y23330D01*
X51047D01*
X66670Y38953D01*
Y61047D01*
X51047Y76670D01*
X28953D01*
X14807Y62524D01*
X10997Y64102D01*
Y97072D01*
X14807Y99317D01*
X21232Y96656D01*
X94884D01*
X101090Y90450D01*
X115910D01*
X117796Y92335D01*
X121316Y90877D01*
Y63520D01*
X124738Y55258D01*
X156508Y23488D01*
X164770Y20066D01*
X431750D01*
X440012Y23488D01*
X452262Y35738D01*
X455684Y44000D01*
Y156140D01*
X452262Y164402D01*
X449262Y167402D01*
X447775Y168018D01*
X448532Y171828D01*
X472993D01*
X477211Y167610D01*
X490789D01*
X500390Y177211D01*
Y190789D01*
X490789Y200390D01*
X477211D01*
X473393Y196572D01*
X433960D01*
X432382Y200382D01*
X434390Y202390D01*
Y217210D01*
X432682Y218918D01*
X434260Y222728D01*
X474093D01*
X478211Y218610D01*
X491789D01*
X501390Y228211D01*
Y241789D01*
X497783Y245396D01*
X499241Y248916D01*
X638759D01*
X640217Y245396D01*
X636610Y241789D01*
Y228211D01*
X646211Y218610D01*
X659789D01*
X663807Y222628D01*
X688407D01*
X696675Y214360D01*
X712325D01*
X723390Y225425D01*
Y241075D01*
X719069Y245396D01*
X720527Y248916D01*
X896690D01*
X903867Y241738D01*
X912130Y238316D01*
X913027D01*
X914605Y234506D01*
X912110Y232010D01*
Y217190D01*
X917400Y211900D01*
X912110Y206610D01*
Y191790D01*
X917400Y186500D01*
X912110Y181210D01*
Y170100D01*
X912110Y166390D01*
X912110Y166290D01*
X912110Y166290D01*
Y130510D01*
X947890D01*
Y166290D01*
X947890Y166290D01*
X947890Y166390D01*
X947890Y170100D01*
Y181210D01*
X942600Y186500D01*
X947890Y191790D01*
Y206610D01*
X942600Y211900D01*
X947890Y217190D01*
Y232010D01*
X942600Y237300D01*
X947890Y242590D01*
Y257410D01*
X942600Y262700D01*
X947890Y267990D01*
Y282810D01*
X938110Y292590D01*
X941540Y296020D01*
Y299530D01*
X930000D01*
Y302070D01*
X941540D01*
Y305580D01*
X938110Y309010D01*
X945401Y316300D01*
X945696D01*
X954445Y319924D01*
X964748Y330228D01*
X968372Y338976D01*
Y395000D01*
X968372Y395000D01*
X964748Y403748D01*
X942998Y425498D01*
X934250Y429122D01*
X585692D01*
Y515000D01*
Y601680D01*
X585692Y601680D01*
X582068Y610428D01*
X568748Y623748D01*
X560000Y627372D01*
X259560D01*
X259560Y627372D01*
X250812Y623748D01*
X187452Y560388D01*
X183642Y561090D01*
Y561090D01*
X67696D01*
X59896Y568890D01*
X40104D01*
X32304Y561090D01*
X10997D01*
Y710003D01*
X87801D01*
X88476Y706193D01*
X73330Y691047D01*
Y668953D01*
X82578Y659704D01*
X81121Y656184D01*
X72601D01*
X59896Y668890D01*
X40104D01*
X26110Y654895D01*
Y635104D01*
X40104Y621110D01*
X59896D01*
X71601Y632816D01*
X130470D01*
X138175Y625110D01*
X153825D01*
X164890Y636175D01*
Y651824D01*
X153825Y662890D01*
X138175D01*
X131470Y656184D01*
X118879D01*
X117422Y659704D01*
X126670Y668953D01*
Y691047D01*
X111524Y706193D01*
X112199Y710003D01*
X890801D01*
X891476Y706193D01*
X876330Y691047D01*
Y668953D01*
X891953Y653330D01*
X914047D01*
X929670Y668953D01*
Y691047D01*
X914524Y706193D01*
X915199Y710003D01*
X981003D01*
X981003Y10997D01*
D02*
G37*
G36*
X138518Y637366D02*
X137599Y638359D01*
X135813Y640033D01*
X134945Y640713D01*
X134095Y641288D01*
X133261Y641758D01*
X132445Y642124D01*
X131646Y642386D01*
X130864Y642543D01*
X130099Y642595D01*
X130294Y646405D01*
X131025Y646454D01*
X131792Y646603D01*
X132595Y646850D01*
X133434Y647196D01*
X134309Y647641D01*
X135219Y648185D01*
X136165Y648827D01*
X138164Y650409D01*
X139218Y651348D01*
X138518Y637366D01*
D02*
G37*
G36*
X62626Y653478D02*
X65578Y650684D01*
X66960Y649548D01*
X68279Y648588D01*
X69535Y647802D01*
X70729Y647191D01*
X71860Y646754D01*
X72928Y646492D01*
X73934Y646405D01*
X73806Y642595D01*
X72843Y642511D01*
X71796Y642257D01*
X70664Y641835D01*
X69446Y641244D01*
X68144Y640483D01*
X66756Y639554D01*
X63726Y637189D01*
X62084Y635754D01*
X60356Y634149D01*
X61056Y655137D01*
X62626Y653478D01*
D02*
G37*
G36*
X514850Y550001D02*
X512530Y549990D01*
X506611Y549541D01*
X504986Y549253D01*
X503534Y548895D01*
X502256Y548467D01*
X501151Y547971D01*
X500220Y547404D01*
X499462Y546768D01*
X496768Y549462D01*
X497404Y550220D01*
X497971Y551151D01*
X498467Y552255D01*
X498895Y553534D01*
X499253Y554986D01*
X499541Y556611D01*
X499760Y558410D01*
X499990Y562530D01*
X500001Y564850D01*
X514850Y550001D01*
D02*
G37*
G36*
X199191Y551039D02*
X198629Y550417D01*
X198168Y549776D01*
X197808Y549114D01*
X197548Y548433D01*
X197388Y547732D01*
X197329Y547011D01*
X197370Y546270D01*
X197512Y545509D01*
X197755Y544728D01*
X198098Y543928D01*
X186353Y548228D01*
X187346Y548681D01*
X190765Y550507D01*
X191480Y550967D01*
X192744Y551890D01*
X193293Y552354D01*
X193786Y552818D01*
X199191Y551039D01*
D02*
G37*
G36*
X62360Y553867D02*
X66863Y549999D01*
X68216Y549054D01*
X69496Y548280D01*
X70702Y547679D01*
X71835Y547249D01*
X72893Y546991D01*
X73878Y546905D01*
Y543095D01*
X72893Y543009D01*
X71835Y542751D01*
X70702Y542321D01*
X69496Y541720D01*
X68216Y540946D01*
X66863Y540001D01*
X65436Y538884D01*
X62360Y536133D01*
X60712Y534500D01*
Y555500D01*
X62360Y553867D01*
D02*
G37*
G36*
X560948Y596555D02*
Y527372D01*
X536414D01*
X526020Y537766D01*
X525269Y540000D01*
X526020Y542234D01*
X538890Y555104D01*
Y574896D01*
X524896Y588890D01*
X505104D01*
X491110Y574896D01*
Y557634D01*
X436789Y503313D01*
X436049Y503460D01*
X434390Y507190D01*
Y522010D01*
X424610Y531790D01*
X428040Y535220D01*
Y535430D01*
X427842Y535382D01*
X427060Y535138D01*
X426213Y534825D01*
X424327Y533989D01*
X422183Y532876D01*
X421015Y532214D01*
X422817Y538730D01*
X404960D01*
Y535220D01*
X408390Y531790D01*
X398610Y522010D01*
Y507190D01*
X403900Y501900D01*
X398610Y496610D01*
Y481790D01*
X403900Y476500D01*
X398610Y471210D01*
Y456390D01*
X403900Y451100D01*
X398610Y445810D01*
Y430990D01*
X403900Y425700D01*
X398610Y420410D01*
Y405590D01*
X408390Y395810D01*
X404960Y392380D01*
Y388870D01*
X422908D01*
X422828Y393999D01*
X423699Y393172D01*
X425383Y391779D01*
X426196Y391213D01*
X426989Y390733D01*
X427763Y390342D01*
X428040Y390230D01*
Y392380D01*
X424610Y395810D01*
X431186Y402386D01*
X493829D01*
X505104Y391110D01*
X524896D01*
X538890Y405104D01*
Y424896D01*
X524896Y438890D01*
X505104D01*
X491969Y425754D01*
X434133D01*
X432675Y429274D01*
X434390Y430990D01*
Y445810D01*
X429100Y451100D01*
X434390Y456390D01*
Y471210D01*
X431755Y473846D01*
X433333Y477656D01*
X439340D01*
X447602Y481078D01*
X487590Y521066D01*
X491110Y519608D01*
Y505104D01*
X505104Y491110D01*
X524896D01*
X536414Y502628D01*
X560948D01*
Y416750D01*
X564572Y408002D01*
X573320Y404378D01*
X929125D01*
X943628Y389875D01*
Y368250D01*
X940108Y366792D01*
X937410Y369490D01*
X922590D01*
X916384Y363284D01*
X894600D01*
X886338Y359862D01*
X849700Y323224D01*
X444850D01*
X444092Y327034D01*
X446548Y328052D01*
X454124Y335628D01*
X456193D01*
X460211Y331610D01*
X473789D01*
X483390Y341211D01*
Y354789D01*
X473789Y364390D01*
X460211D01*
X456193Y360372D01*
X449000D01*
X440252Y356748D01*
X438134Y354630D01*
X434390Y356274D01*
Y369610D01*
X424610Y379390D01*
X428040Y382820D01*
Y385217D01*
X427819Y385126D01*
X427056Y384726D01*
X426279Y384239D01*
X425487Y383662D01*
X424681Y382997D01*
X423860Y382243D01*
X423024Y381401D01*
X422948Y386330D01*
X404960D01*
Y382820D01*
X408390Y379390D01*
X398610Y369610D01*
Y354790D01*
X403900Y349500D01*
X398610Y344210D01*
Y329390D01*
X403900Y324100D01*
X398610Y318810D01*
Y303990D01*
X403900Y298700D01*
X398610Y293410D01*
Y278590D01*
X403900Y273300D01*
X398610Y268010D01*
Y253190D01*
X403900Y247900D01*
X398610Y242610D01*
Y227790D01*
X403900Y222500D01*
X398610Y217210D01*
Y202390D01*
X403900Y197100D01*
X398610Y191810D01*
Y176990D01*
X403900Y171700D01*
X398610Y166410D01*
Y151590D01*
X403900Y146300D01*
X398610Y141010D01*
Y126190D01*
X403900Y120900D01*
X398610Y115610D01*
Y100790D01*
X403900Y95500D01*
X398610Y90210D01*
Y75390D01*
X409090Y64910D01*
X423910D01*
X428796Y69795D01*
X432316Y68337D01*
Y48840D01*
X426910Y43434D01*
X169610D01*
X150835Y62210D01*
X153503Y64930D01*
X169114D01*
X175633Y71448D01*
X176052D01*
X182590Y64910D01*
X197410D01*
X207890Y75390D01*
Y90210D01*
X202600Y95500D01*
X207890Y100790D01*
Y115610D01*
X202600Y120900D01*
X207890Y126190D01*
Y141010D01*
X202600Y146300D01*
X207890Y151590D01*
Y166410D01*
X202600Y171700D01*
X207890Y176990D01*
Y191810D01*
X198110Y201590D01*
X201540Y205020D01*
Y208530D01*
X190000D01*
Y211070D01*
X201540D01*
Y214580D01*
X198110Y218010D01*
X207890Y227790D01*
Y242610D01*
X202600Y247900D01*
X207890Y253190D01*
Y268010D01*
X202600Y273300D01*
X207890Y278590D01*
Y293410D01*
X202600Y298700D01*
X207890Y303990D01*
Y318810D01*
X202600Y324100D01*
X207890Y329390D01*
Y344210D01*
X202600Y349500D01*
X207890Y354790D01*
Y369610D01*
X202600Y374900D01*
X207890Y380190D01*
Y395010D01*
X202600Y400300D01*
X207890Y405590D01*
Y420410D01*
X202600Y425700D01*
X207890Y430990D01*
Y445810D01*
X202600Y451100D01*
X207890Y456390D01*
Y471210D01*
X202600Y476500D01*
X207890Y481790D01*
Y496610D01*
X202600Y501900D01*
X207890Y507190D01*
Y522010D01*
X202600Y527300D01*
X207890Y532590D01*
Y545834D01*
X264685Y602628D01*
X554875D01*
X560948Y596555D01*
D02*
G37*
G36*
X575860Y515000D02*
X570780Y507380D01*
Y507380D01*
X570780Y507380D01*
X570729Y508345D01*
X570577Y509209D01*
X570323Y509971D01*
X569967Y510631D01*
X569510Y511190D01*
X568951Y511647D01*
X568291Y512003D01*
X567529Y512257D01*
X566665Y512409D01*
X565700Y512460D01*
Y517540D01*
X565700D01*
Y517540D01*
X566665Y517591D01*
X567529Y517743D01*
X568291Y517997D01*
X568951Y518353D01*
X569510Y518810D01*
X569967Y519369D01*
X570323Y520029D01*
X570577Y520791D01*
X570729Y521655D01*
X570780Y522620D01*
X570780Y522620D01*
Y522620D01*
X575860Y515000D01*
D02*
G37*
G36*
X527247Y523988D02*
X530166Y521440D01*
X531549Y520406D01*
X532881Y519530D01*
X534163Y518814D01*
X535394Y518256D01*
X536575Y517858D01*
X537704Y517620D01*
X538783Y517540D01*
Y512460D01*
X537704Y512380D01*
X536575Y512142D01*
X535394Y511744D01*
X534163Y511186D01*
X532881Y510470D01*
X531549Y509594D01*
X530166Y508560D01*
X527247Y506012D01*
X525712Y504500D01*
Y525500D01*
X527247Y523988D01*
D02*
G37*
G36*
X62360Y503867D02*
X66863Y499999D01*
X68216Y499054D01*
X69496Y498280D01*
X70702Y497679D01*
X71835Y497249D01*
X72893Y496991D01*
X73878Y496905D01*
Y493095D01*
X72893Y493009D01*
X71835Y492751D01*
X70702Y492321D01*
X69496Y491720D01*
X68216Y490946D01*
X66863Y490001D01*
X65436Y488884D01*
X62360Y486133D01*
X60712Y484500D01*
Y505500D01*
X62360Y503867D01*
D02*
G37*
G36*
X183038Y483496D02*
X182286Y484370D01*
X181538Y485152D01*
X180792Y485842D01*
X180051Y486440D01*
X179312Y486945D01*
X178577Y487359D01*
X177844Y487681D01*
X177116Y487911D01*
X176390Y488049D01*
X175668Y488095D01*
X176016Y491905D01*
X176689Y491946D01*
X177394Y492071D01*
X178130Y492278D01*
X178897Y492568D01*
X179696Y492940D01*
X180526Y493396D01*
X181387Y493934D01*
X183203Y495260D01*
X184158Y496046D01*
X183038Y483496D01*
D02*
G37*
G36*
X423699Y494772D02*
X425383Y493379D01*
X426196Y492812D01*
X426989Y492333D01*
X427763Y491942D01*
X428517Y491637D01*
X429253Y491419D01*
X429968Y491288D01*
X430665Y491245D01*
X430725Y487435D01*
X430020Y487391D01*
X429301Y487258D01*
X428567Y487036D01*
X427819Y486726D01*
X427056Y486326D01*
X426279Y485839D01*
X425487Y485262D01*
X424681Y484597D01*
X423860Y483843D01*
X423024Y483001D01*
X422828Y495599D01*
X423699Y494772D01*
D02*
G37*
G36*
X182790Y458413D02*
X182089Y459303D01*
X181384Y460099D01*
X180676Y460801D01*
X179965Y461410D01*
X179251Y461925D01*
X178533Y462346D01*
X177811Y462674D01*
X177087Y462908D01*
X176359Y463048D01*
X175628Y463095D01*
X176153Y466905D01*
X176809Y466945D01*
X177505Y467065D01*
X178240Y467265D01*
X179013Y467544D01*
X179825Y467904D01*
X180676Y468344D01*
X182496Y469462D01*
X183463Y470141D01*
X184470Y470901D01*
X182790Y458413D01*
D02*
G37*
G36*
X62360Y453867D02*
X66863Y449999D01*
X68216Y449054D01*
X69496Y448280D01*
X70702Y447679D01*
X71835Y447249D01*
X72893Y446991D01*
X73878Y446905D01*
Y443095D01*
X72893Y443009D01*
X71835Y442751D01*
X70702Y442321D01*
X69496Y441720D01*
X68216Y440946D01*
X66863Y440001D01*
X65436Y438884D01*
X62360Y436133D01*
X60712Y434500D01*
Y455500D01*
X62360Y453867D01*
D02*
G37*
G36*
X183475Y432201D02*
X182640Y433043D01*
X181013Y434462D01*
X180221Y435039D01*
X179444Y435526D01*
X178681Y435925D01*
X177933Y436236D01*
X177199Y436458D01*
X176479Y436591D01*
X175775Y436635D01*
X175835Y440445D01*
X176532Y440489D01*
X177248Y440619D01*
X177983Y440837D01*
X178737Y441142D01*
X179511Y441534D01*
X180304Y442012D01*
X181117Y442579D01*
X181949Y443232D01*
X183671Y444799D01*
X183475Y432201D01*
D02*
G37*
G36*
X423123Y419251D02*
X424993Y417957D01*
X425874Y417431D01*
X426718Y416986D01*
X427526Y416622D01*
X428298Y416339D01*
X429033Y416137D01*
X429732Y416015D01*
X430394Y415975D01*
X430861Y412165D01*
X430133Y412118D01*
X429406Y411979D01*
X428680Y411746D01*
X427955Y411420D01*
X427231Y411001D01*
X426509Y410489D01*
X425787Y409883D01*
X425067Y409185D01*
X424348Y408394D01*
X423631Y407509D01*
X422133Y420019D01*
X423123Y419251D01*
D02*
G37*
G36*
X504959Y403856D02*
X503163Y405435D01*
X498343Y409174D01*
X496926Y410088D01*
X495605Y410836D01*
X494379Y411417D01*
X493247Y411833D01*
X492211Y412082D01*
X491270Y412165D01*
X491032Y415975D01*
X492053Y416063D01*
X493129Y416329D01*
X494258Y416771D01*
X495440Y417389D01*
X496676Y418185D01*
X497965Y419158D01*
X499308Y420307D01*
X502154Y423136D01*
X503657Y424816D01*
X504959Y403856D01*
D02*
G37*
G36*
X62360Y403867D02*
X66863Y399999D01*
X68216Y399054D01*
X69496Y398280D01*
X70702Y397679D01*
X71835Y397249D01*
X72893Y396991D01*
X73878Y396905D01*
Y393095D01*
X72893Y393009D01*
X71835Y392751D01*
X70702Y392322D01*
X69496Y391720D01*
X68216Y390946D01*
X66863Y390001D01*
X65436Y388884D01*
X62360Y386133D01*
X60712Y384500D01*
Y405500D01*
X62360Y403867D01*
D02*
G37*
G36*
X923573Y345300D02*
X922720Y346135D01*
X921064Y347542D01*
X920262Y348113D01*
X919476Y348596D01*
X918708Y348992D01*
X917957Y349300D01*
X917222Y349519D01*
X916505Y349651D01*
X915804Y349695D01*
Y353505D01*
X916505Y353549D01*
X917222Y353681D01*
X917957Y353901D01*
X918708Y354208D01*
X919476Y354604D01*
X920262Y355087D01*
X921064Y355658D01*
X921883Y356318D01*
X923573Y357900D01*
Y345300D01*
D02*
G37*
G36*
X461644Y342750D02*
X461104Y343265D01*
X460546Y343726D01*
X459970Y344132D01*
X459377Y344484D01*
X458766Y344782D01*
X458137Y345026D01*
X457490Y345216D01*
X456825Y345352D01*
X456143Y345433D01*
X455443Y345460D01*
Y350540D01*
X456143Y350567D01*
X456825Y350648D01*
X457490Y350784D01*
X458137Y350974D01*
X458766Y351217D01*
X459377Y351516D01*
X459970Y351868D01*
X460546Y352274D01*
X461104Y352735D01*
X461644Y353250D01*
Y342750D01*
D02*
G37*
G36*
X182665Y331585D02*
X181991Y332482D01*
X181309Y333284D01*
X180621Y333992D01*
X179926Y334606D01*
X179224Y335125D01*
X178516Y335550D01*
X177800Y335880D01*
X177078Y336116D01*
X176349Y336258D01*
X175614Y336305D01*
X176233Y340115D01*
X176880Y340154D01*
X177570Y340272D01*
X178303Y340467D01*
X179079Y340741D01*
X179898Y341093D01*
X180760Y341524D01*
X182614Y342620D01*
X183605Y343285D01*
X184639Y344029D01*
X182665Y331585D01*
D02*
G37*
G36*
X423667Y342386D02*
X424411Y341746D01*
X425160Y341182D01*
X425913Y340694D01*
X426672Y340280D01*
X427435Y339942D01*
X428203Y339678D01*
X428975Y339490D01*
X429752Y339378D01*
X430534Y339340D01*
Y334260D01*
X429752Y334222D01*
X428975Y334110D01*
X428203Y333922D01*
X427435Y333658D01*
X426672Y333320D01*
X425913Y332906D01*
X425160Y332418D01*
X424411Y331854D01*
X423667Y331214D01*
X422927Y330500D01*
Y343100D01*
X423667Y342386D01*
D02*
G37*
G36*
X935423Y333489D02*
X938170Y332224D01*
X939027Y331915D01*
X940654Y331465D01*
X941423Y331325D01*
X942164Y331240D01*
X942875Y331212D01*
X944400Y326132D01*
X943579Y326090D01*
X942797Y325963D01*
X942053Y325752D01*
X941347Y325456D01*
X940679Y325076D01*
X940049Y324611D01*
X939457Y324062D01*
X938904Y323429D01*
X938388Y322710D01*
X937911Y321908D01*
X934450Y334023D01*
X935423Y333489D01*
D02*
G37*
G36*
X423699Y316972D02*
X425383Y315579D01*
X426196Y315012D01*
X426989Y314534D01*
X427763Y314142D01*
X428517Y313837D01*
X429253Y313619D01*
X429968Y313489D01*
X430665Y313445D01*
X430725Y309635D01*
X430020Y309591D01*
X429301Y309458D01*
X428567Y309236D01*
X427819Y308925D01*
X427056Y308526D01*
X426279Y308039D01*
X425487Y307462D01*
X424681Y306797D01*
X423860Y306043D01*
X423024Y305201D01*
X422828Y317799D01*
X423699Y316972D01*
D02*
G37*
G36*
Y291572D02*
X425383Y290179D01*
X426196Y289613D01*
X426989Y289133D01*
X427763Y288742D01*
X428517Y288437D01*
X429253Y288219D01*
X429968Y288088D01*
X430665Y288045D01*
X430725Y284235D01*
X430020Y284191D01*
X429301Y284058D01*
X428567Y283836D01*
X427819Y283526D01*
X427056Y283126D01*
X426279Y282639D01*
X425487Y282062D01*
X424681Y281397D01*
X423860Y280643D01*
X423024Y279801D01*
X422828Y292399D01*
X423699Y291572D01*
D02*
G37*
G36*
X176751Y323452D02*
X172110Y318810D01*
Y303990D01*
X177400Y298700D01*
X172110Y293410D01*
Y278590D01*
X172495Y278204D01*
X171037Y274684D01*
X158840D01*
X148262Y285262D01*
X140000Y288684D01*
X42232D01*
X34494Y285480D01*
X32306Y286327D01*
X30684Y287365D01*
Y326526D01*
X174437D01*
X176751Y323452D01*
D02*
G37*
G36*
X923859Y268821D02*
X922955Y269633D01*
X921219Y271001D01*
X920387Y271556D01*
X919579Y272026D01*
X918796Y272411D01*
X918036Y272710D01*
X917300Y272924D01*
X916588Y273052D01*
X915900Y273095D01*
X915727Y276905D01*
X916439Y276950D01*
X917161Y277085D01*
X917893Y277310D01*
X918635Y277626D01*
X919387Y278031D01*
X920150Y278526D01*
X920922Y279111D01*
X921704Y279787D01*
X922497Y280553D01*
X923299Y281408D01*
X923859Y268821D01*
D02*
G37*
G36*
X182125Y256242D02*
X181577Y257164D01*
X181006Y257989D01*
X180411Y258717D01*
X179794Y259348D01*
X179155Y259882D01*
X178492Y260319D01*
X177807Y260658D01*
X177099Y260901D01*
X176367Y261047D01*
X175614Y261095D01*
X176696Y264905D01*
X177286Y264940D01*
X177939Y265044D01*
X178658Y265218D01*
X179440Y265462D01*
X180287Y265775D01*
X182173Y266611D01*
X184317Y267724D01*
X185485Y268386D01*
X182125Y256242D01*
D02*
G37*
G36*
X423780Y266065D02*
X425436Y264659D01*
X426238Y264087D01*
X427024Y263604D01*
X427792Y263208D01*
X428543Y262901D01*
X429278Y262681D01*
X429995Y262549D01*
X430696Y262505D01*
Y258695D01*
X429995Y258651D01*
X429278Y258519D01*
X428543Y258300D01*
X427792Y257992D01*
X427024Y257596D01*
X426238Y257113D01*
X425436Y256542D01*
X424617Y255882D01*
X422927Y254300D01*
Y266900D01*
X423780Y266065D01*
D02*
G37*
G36*
X142436Y258040D02*
X140858Y254230D01*
X138776D01*
X132257Y247712D01*
X126390D01*
Y253230D01*
X90610D01*
Y217450D01*
X95829D01*
X96960Y214720D01*
Y212473D01*
X97214Y212577D01*
X97984Y212972D01*
X98771Y213454D01*
X99575Y214024D01*
X100397Y214682D01*
X102094Y216261D01*
X102077Y211210D01*
X108500D01*
Y208670D01*
X102069D01*
X102052Y203661D01*
X101202Y204498D01*
X99553Y205907D01*
X98753Y206480D01*
X97969Y206964D01*
X97202Y207360D01*
X96960Y207460D01*
Y205160D01*
X100390Y201730D01*
X90610Y191950D01*
Y177130D01*
X95900Y171840D01*
X90610Y166550D01*
Y151730D01*
X93105Y149234D01*
X91527Y145424D01*
X51684D01*
Y265316D01*
X135160D01*
X142436Y258040D01*
D02*
G37*
G36*
X923573Y243700D02*
X922720Y244535D01*
X921064Y245942D01*
X920262Y246513D01*
X919476Y246996D01*
X918708Y247392D01*
X917957Y247700D01*
X917222Y247919D01*
X916505Y248051D01*
X915804Y248095D01*
Y251905D01*
X916505Y251949D01*
X917222Y252081D01*
X917957Y252301D01*
X918708Y252608D01*
X919476Y253004D01*
X920262Y253487D01*
X921064Y254058D01*
X921883Y254718D01*
X923573Y256300D01*
Y243700D01*
D02*
G37*
G36*
X117496Y239937D02*
X117653Y239506D01*
X117912Y239125D01*
X118271Y238794D01*
X118732Y238515D01*
X119293Y238286D01*
X119956Y238109D01*
X120719Y237982D01*
X121584Y237905D01*
X122549Y237880D01*
Y232800D01*
X121584Y232775D01*
X120719Y232698D01*
X119956Y232571D01*
X119293Y232394D01*
X118732Y232165D01*
X118271Y231886D01*
X117912Y231555D01*
X117653Y231174D01*
X117496Y230743D01*
X117439Y230260D01*
Y240420D01*
X117496Y239937D01*
D02*
G37*
G36*
X479574Y229822D02*
X479042Y230342D01*
X478492Y230808D01*
X477922Y231218D01*
X477333Y231574D01*
X476726Y231875D01*
X476100Y232122D01*
X475455Y232314D01*
X474792Y232451D01*
X474109Y232533D01*
X473408Y232560D01*
X473480Y237640D01*
X474179Y237667D01*
X474861Y237747D01*
X475526Y237881D01*
X476175Y238069D01*
X476806Y238310D01*
X477421Y238605D01*
X478020Y238954D01*
X478601Y239356D01*
X479166Y239812D01*
X479714Y240321D01*
X479574Y229822D01*
D02*
G37*
G36*
X658896Y239735D02*
X659454Y239274D01*
X660030Y238868D01*
X660623Y238516D01*
X661234Y238218D01*
X661863Y237974D01*
X662510Y237784D01*
X663175Y237648D01*
X663857Y237567D01*
X664557Y237540D01*
Y232460D01*
X663857Y232433D01*
X663175Y232352D01*
X662510Y232216D01*
X661863Y232026D01*
X661234Y231782D01*
X660623Y231484D01*
X660030Y231132D01*
X659454Y230726D01*
X658896Y230265D01*
X658356Y229750D01*
Y240250D01*
X658896Y239735D01*
D02*
G37*
G36*
X423726Y240709D02*
X424462Y240065D01*
X425203Y239496D01*
X425951Y239004D01*
X426704Y238587D01*
X427464Y238246D01*
X428229Y237981D01*
X429001Y237792D01*
X429779Y237678D01*
X430563Y237640D01*
X430504Y232560D01*
X429724Y232523D01*
X428948Y232411D01*
X428175Y232224D01*
X427405Y231963D01*
X426638Y231627D01*
X425875Y231217D01*
X425116Y230732D01*
X424359Y230172D01*
X423606Y229538D01*
X422857Y228829D01*
X422997Y241428D01*
X423726Y240709D01*
D02*
G37*
G36*
X139459Y228340D02*
X138586Y229187D01*
X137718Y229946D01*
X136855Y230615D01*
X135995Y231194D01*
X135140Y231685D01*
X134289Y232086D01*
X133442Y232399D01*
X132600Y232622D01*
X131762Y232755D01*
X130928Y232800D01*
Y237880D01*
X131762Y237925D01*
X132600Y238058D01*
X133442Y238281D01*
X134289Y238594D01*
X135140Y238995D01*
X135995Y239486D01*
X136855Y240065D01*
X137718Y240734D01*
X138586Y241493D01*
X139459Y242340D01*
Y228340D01*
D02*
G37*
G36*
X696244Y227608D02*
X695570Y228530D01*
X694874Y229355D01*
X694157Y230082D01*
X693418Y230713D01*
X692658Y231247D01*
X691876Y231684D01*
X691072Y232023D01*
X690247Y232266D01*
X689400Y232411D01*
X688531Y232460D01*
X689467Y237540D01*
X690248Y237579D01*
X691060Y237694D01*
X691904Y237887D01*
X692780Y238156D01*
X693687Y238503D01*
X694625Y238927D01*
X695595Y239427D01*
X697629Y240660D01*
X698694Y241392D01*
X696244Y227608D01*
D02*
G37*
G36*
X114990Y190930D02*
X117796Y189144D01*
X118651Y188707D01*
X119465Y188350D01*
X120240Y188072D01*
X120974Y187874D01*
X121668Y187755D01*
X122321Y187715D01*
X122878Y183905D01*
X122145Y183858D01*
X121417Y183717D01*
X120693Y183482D01*
X119973Y183154D01*
X119259Y182731D01*
X118548Y182215D01*
X117843Y181604D01*
X117141Y180900D01*
X116444Y180102D01*
X115752Y179210D01*
X113974Y191684D01*
X114990Y190930D01*
D02*
G37*
G36*
X182665Y179185D02*
X181991Y180082D01*
X181309Y180884D01*
X180621Y181592D01*
X179926Y182206D01*
X179224Y182725D01*
X178516Y183150D01*
X177800Y183480D01*
X177078Y183716D01*
X176349Y183858D01*
X175614Y183905D01*
X176233Y187715D01*
X176880Y187754D01*
X177570Y187872D01*
X178303Y188067D01*
X179079Y188341D01*
X179898Y188694D01*
X180760Y189124D01*
X182614Y190220D01*
X183605Y190885D01*
X184639Y191629D01*
X182665Y179185D01*
D02*
G37*
G36*
X478506Y178895D02*
X477982Y179420D01*
X477438Y179890D01*
X476875Y180305D01*
X476291Y180665D01*
X475688Y180969D01*
X475065Y181218D01*
X474422Y181411D01*
X473759Y181549D01*
X473077Y181632D01*
X472374Y181660D01*
X472518Y186740D01*
X473216Y186766D01*
X473898Y186846D01*
X474564Y186979D01*
X475214Y187164D01*
X475849Y187403D01*
X476467Y187694D01*
X477071Y188039D01*
X477658Y188437D01*
X478230Y188887D01*
X478786Y189391D01*
X478506Y178895D01*
D02*
G37*
G36*
X423785Y189831D02*
X424511Y189182D01*
X425245Y188610D01*
X425987Y188114D01*
X426735Y187694D01*
X427492Y187351D01*
X428255Y187083D01*
X429026Y186893D01*
X429805Y186778D01*
X430591Y186740D01*
X430473Y181660D01*
X429695Y181623D01*
X428919Y181512D01*
X428145Y181327D01*
X427374Y181068D01*
X426604Y180735D01*
X425836Y180328D01*
X425070Y179846D01*
X424307Y179291D01*
X423545Y178662D01*
X422786Y177959D01*
X423066Y190556D01*
X423785Y189831D01*
D02*
G37*
G36*
X115780Y164605D02*
X117436Y163199D01*
X118238Y162627D01*
X119024Y162144D01*
X119792Y161748D01*
X120543Y161441D01*
X121278Y161221D01*
X121995Y161089D01*
X122696Y161045D01*
Y157235D01*
X121995Y157191D01*
X121278Y157059D01*
X120543Y156839D01*
X119792Y156532D01*
X119024Y156136D01*
X118238Y155653D01*
X117436Y155082D01*
X116617Y154422D01*
X114927Y152840D01*
Y165440D01*
X115780Y164605D01*
D02*
G37*
G36*
X423699Y164572D02*
X425383Y163179D01*
X426196Y162612D01*
X426989Y162134D01*
X427763Y161742D01*
X428517Y161437D01*
X429253Y161219D01*
X429968Y161089D01*
X430665Y161045D01*
X430725Y157235D01*
X430020Y157191D01*
X429301Y157058D01*
X428567Y156836D01*
X427819Y156525D01*
X427056Y156126D01*
X426279Y155639D01*
X425487Y155062D01*
X424681Y154397D01*
X423860Y153643D01*
X423024Y152801D01*
X422828Y165399D01*
X423699Y164572D01*
D02*
G37*
G36*
X102073Y127440D02*
X101220Y128275D01*
X99564Y129682D01*
X98762Y130253D01*
X97977Y130736D01*
X97208Y131132D01*
X96457Y131439D01*
X95722Y131659D01*
X95005Y131791D01*
X94304Y131835D01*
Y135645D01*
X95005Y135689D01*
X95722Y135821D01*
X96457Y136040D01*
X97208Y136348D01*
X97977Y136744D01*
X98762Y137227D01*
X99564Y137799D01*
X100383Y138458D01*
X102073Y140040D01*
Y127440D01*
D02*
G37*
G36*
Y102040D02*
X101220Y102875D01*
X99564Y104282D01*
X98762Y104853D01*
X97977Y105336D01*
X97208Y105732D01*
X96457Y106039D01*
X95722Y106259D01*
X95005Y106391D01*
X94304Y106435D01*
Y110245D01*
X95005Y110289D01*
X95722Y110421D01*
X96457Y110640D01*
X97208Y110948D01*
X97977Y111344D01*
X98762Y111827D01*
X99564Y112399D01*
X100383Y113058D01*
X102073Y114640D01*
Y102040D01*
D02*
G37*
G36*
X169304Y89973D02*
X170172Y89214D01*
X171035Y88545D01*
X171895Y87966D01*
X172750Y87475D01*
X173601Y87074D01*
X174447Y86761D01*
X175290Y86538D01*
X176128Y86405D01*
X176674Y86375D01*
X177093Y86394D01*
X177861Y86497D01*
X178637Y86669D01*
X179423Y86909D01*
X180218Y87217D01*
X181022Y87594D01*
X181835Y88040D01*
X182657Y88554D01*
X183488Y89137D01*
X184328Y89788D01*
X182900Y77269D01*
X182266Y78031D01*
X181613Y78713D01*
X180942Y79315D01*
X180253Y79836D01*
X179545Y80277D01*
X178819Y80638D01*
X178074Y80919D01*
X177311Y81120D01*
X176529Y81240D01*
X176366Y81248D01*
X176128Y81235D01*
X175290Y81102D01*
X174447Y80879D01*
X173601Y80566D01*
X172750Y80165D01*
X171895Y79674D01*
X171035Y79095D01*
X170172Y78426D01*
X169304Y77667D01*
X168431Y76820D01*
Y90820D01*
X169304Y89973D01*
D02*
G37*
%LPC*%
G36*
X665194Y687540D02*
X661270D01*
Y676270D01*
X672540D01*
Y680194D01*
X665194Y687540D01*
D02*
G37*
G36*
X658730D02*
X654806D01*
X647460Y680194D01*
Y676270D01*
X658730D01*
Y687540D01*
D02*
G37*
G36*
X250194Y682540D02*
X246270D01*
Y671270D01*
X257540D01*
Y675194D01*
X250194Y682540D01*
D02*
G37*
G36*
X243730D02*
X239806D01*
X232460Y675194D01*
Y671270D01*
X243730D01*
Y682540D01*
D02*
G37*
G36*
X465194Y677540D02*
X461270D01*
Y666270D01*
X472540D01*
Y670194D01*
X465194Y677540D01*
D02*
G37*
G36*
X458730D02*
X454806D01*
X447460Y670194D01*
Y666270D01*
X458730D01*
Y677540D01*
D02*
G37*
G36*
X672540Y673730D02*
X661270D01*
Y662460D01*
X665194D01*
X672540Y669806D01*
Y673730D01*
D02*
G37*
G36*
X658730D02*
X647460D01*
Y669806D01*
X654806Y662460D01*
X658730D01*
Y673730D01*
D02*
G37*
G36*
X257540Y668730D02*
X246270D01*
Y657460D01*
X250194D01*
X257540Y664806D01*
Y668730D01*
D02*
G37*
G36*
X243730D02*
X232460D01*
Y664806D01*
X239806Y657460D01*
X243730D01*
Y668730D01*
D02*
G37*
G36*
X472540Y663730D02*
X461270D01*
Y652460D01*
X465194D01*
X472540Y659806D01*
Y663730D01*
D02*
G37*
G36*
X458730D02*
X447460D01*
Y659806D01*
X454806Y652460D01*
X458730D01*
Y663730D01*
D02*
G37*
G36*
X57265Y612540D02*
X51270D01*
Y596270D01*
X67540D01*
Y602265D01*
X57265Y612540D01*
D02*
G37*
G36*
X48730D02*
X42735D01*
X32460Y602265D01*
Y596270D01*
X48730D01*
Y612540D01*
D02*
G37*
G36*
X67540Y593730D02*
X51270D01*
Y577460D01*
X57265D01*
X67540Y587735D01*
Y593730D01*
D02*
G37*
G36*
X48730D02*
X32460D01*
Y587735D01*
X42735Y577460D01*
X48730D01*
Y593730D01*
D02*
G37*
G36*
X676194Y538540D02*
X672270D01*
Y527270D01*
X683540D01*
Y531194D01*
X676194Y538540D01*
D02*
G37*
G36*
X669730D02*
X665806D01*
X658460Y531194D01*
Y527270D01*
X669730D01*
Y538540D01*
D02*
G37*
G36*
X867194Y534540D02*
X863270D01*
Y523270D01*
X874540D01*
Y527194D01*
X867194Y534540D01*
D02*
G37*
G36*
X860730D02*
X856806D01*
X849460Y527194D01*
Y523270D01*
X860730D01*
Y534540D01*
D02*
G37*
G36*
X683540Y524730D02*
X672270D01*
Y513460D01*
X676194D01*
X683540Y520806D01*
Y524730D01*
D02*
G37*
G36*
X669730D02*
X658460D01*
Y520806D01*
X665806Y513460D01*
X669730D01*
Y524730D01*
D02*
G37*
G36*
X874540Y520730D02*
X863270D01*
Y509460D01*
X867194D01*
X874540Y516806D01*
Y520730D01*
D02*
G37*
G36*
X860730D02*
X849460D01*
Y516806D01*
X856806Y509460D01*
X860730D01*
Y520730D01*
D02*
G37*
G36*
X768694Y243790D02*
X764770D01*
Y232520D01*
X776040D01*
Y236444D01*
X768694Y243790D01*
D02*
G37*
G36*
X762230D02*
X758306D01*
X750960Y236444D01*
Y232520D01*
X762230D01*
Y243790D01*
D02*
G37*
G36*
X776040Y229980D02*
X764770D01*
Y218710D01*
X768694D01*
X776040Y226056D01*
Y229980D01*
D02*
G37*
G36*
X762230D02*
X750960D01*
Y226056D01*
X758306Y218710D01*
X762230D01*
Y229980D01*
D02*
G37*
G36*
X714324Y201140D02*
X698676D01*
X692157Y194622D01*
X664557D01*
X658789Y200390D01*
X645211D01*
X635610Y190789D01*
Y177211D01*
X645211Y167610D01*
X658789D01*
X661057Y169878D01*
X692157D01*
X698676Y163360D01*
X714324D01*
X725390Y174426D01*
Y190075D01*
X714324Y201140D01*
D02*
G37*
G36*
X768694Y195790D02*
X764770D01*
Y184520D01*
X776040D01*
Y188444D01*
X768694Y195790D01*
D02*
G37*
G36*
X762230D02*
X758306D01*
X750960Y188444D01*
Y184520D01*
X762230D01*
Y195790D01*
D02*
G37*
G36*
X776040Y181980D02*
X764770D01*
Y170710D01*
X768694D01*
X776040Y178056D01*
Y181980D01*
D02*
G37*
G36*
X762230D02*
X750960D01*
Y178056D01*
X758306Y170710D01*
X762230D01*
Y181980D01*
D02*
G37*
G36*
X809194Y99540D02*
X805270D01*
Y88270D01*
X816540D01*
Y92194D01*
X809194Y99540D01*
D02*
G37*
G36*
X802730D02*
X798806D01*
X791460Y92194D01*
Y88270D01*
X802730D01*
Y99540D01*
D02*
G37*
G36*
X816540Y85730D02*
X805270D01*
Y74460D01*
X809194D01*
X816540Y81806D01*
Y85730D01*
D02*
G37*
G36*
X802730D02*
X791460D01*
Y81806D01*
X798806Y74460D01*
X802730D01*
Y85730D01*
D02*
G37*
G36*
X505694Y80790D02*
X501770D01*
Y69520D01*
X513040D01*
Y73444D01*
X505694Y80790D01*
D02*
G37*
G36*
X499230D02*
X495306D01*
X487960Y73444D01*
Y69520D01*
X499230D01*
Y80790D01*
D02*
G37*
G36*
X643694Y73790D02*
X639770D01*
Y62520D01*
X651040D01*
Y66444D01*
X643694Y73790D01*
D02*
G37*
G36*
X637230D02*
X633306D01*
X625960Y66444D01*
Y62520D01*
X637230D01*
Y73790D01*
D02*
G37*
G36*
X513040Y66980D02*
X501770D01*
Y55710D01*
X505694D01*
X513040Y63056D01*
Y66980D01*
D02*
G37*
G36*
X499230D02*
X487960D01*
Y63056D01*
X495306Y55710D01*
X499230D01*
Y66980D01*
D02*
G37*
G36*
X651040Y59980D02*
X639770D01*
Y48710D01*
X643694D01*
X651040Y56056D01*
Y59980D01*
D02*
G37*
G36*
X637230D02*
X625960D01*
Y56056D01*
X633306Y48710D01*
X637230D01*
Y59980D01*
D02*
G37*
%LPD*%
G36*
X658819Y187273D02*
X659242Y186752D01*
X659702Y186292D01*
X660199Y185893D01*
X660733Y185556D01*
X661304Y185280D01*
X661912Y185066D01*
X662557Y184913D01*
X663239Y184821D01*
X663958Y184790D01*
X662652Y179710D01*
X661978Y179689D01*
X661305Y179627D01*
X660634Y179524D01*
X659965Y179380D01*
X659297Y179194D01*
X658631Y178967D01*
X657967Y178698D01*
X657304Y178389D01*
X655983Y177645D01*
X658433Y187855D01*
X658819Y187273D01*
D02*
G37*
G36*
X699359Y175250D02*
X698486Y176097D01*
X697618Y176856D01*
X696755Y177525D01*
X695895Y178104D01*
X695040Y178595D01*
X694189Y178996D01*
X693343Y179309D01*
X692500Y179532D01*
X691662Y179665D01*
X690828Y179710D01*
Y184790D01*
X691662Y184835D01*
X692500Y184968D01*
X693343Y185191D01*
X694189Y185504D01*
X695040Y185905D01*
X695895Y186396D01*
X696755Y186975D01*
X697618Y187644D01*
X698486Y188403D01*
X699359Y189250D01*
Y175250D01*
D02*
G37*
%LPC*%
G36*
X421280Y551540D02*
X417770D01*
Y541270D01*
X423520D01*
X424375Y544358D01*
X424923Y543436D01*
X425494Y542611D01*
X426089Y541883D01*
X426688Y541270D01*
X428040D01*
Y544780D01*
X421280Y551540D01*
D02*
G37*
G36*
X415230D02*
X411720D01*
X404960Y544780D01*
Y541270D01*
X415230D01*
Y551540D01*
D02*
G37*
G36*
X522265Y482540D02*
X516270D01*
Y466270D01*
X532540D01*
Y472265D01*
X522265Y482540D01*
D02*
G37*
G36*
X513730D02*
X507735D01*
X497460Y472265D01*
Y466270D01*
X513730D01*
Y482540D01*
D02*
G37*
G36*
X532540Y463730D02*
X516270D01*
Y447460D01*
X522265D01*
X532540Y457735D01*
Y463730D01*
D02*
G37*
G36*
X513730D02*
X497460D01*
Y457735D01*
X507735Y447460D01*
X513730D01*
Y463730D01*
D02*
G37*
G36*
X682325Y366140D02*
X666675D01*
X660907Y360372D01*
X645807D01*
X641789Y364390D01*
X628211D01*
X618610Y354789D01*
Y341211D01*
X628211Y331610D01*
X641789D01*
X645807Y335628D01*
X659407D01*
X666675Y328360D01*
X682325D01*
X693390Y339426D01*
Y355075D01*
X682325Y366140D01*
D02*
G37*
G36*
X751194Y358540D02*
X747270D01*
Y347270D01*
X758540D01*
Y351194D01*
X751194Y358540D01*
D02*
G37*
G36*
X744730D02*
X740806D01*
X733460Y351194D01*
Y347270D01*
X744730D01*
Y358540D01*
D02*
G37*
G36*
X317194Y345790D02*
X313270D01*
Y334520D01*
X324540D01*
Y338444D01*
X317194Y345790D01*
D02*
G37*
G36*
X310730D02*
X306806D01*
X299460Y338444D01*
Y334520D01*
X310730D01*
Y345790D01*
D02*
G37*
G36*
X758540Y344730D02*
X747270D01*
Y333460D01*
X751194D01*
X758540Y340806D01*
Y344730D01*
D02*
G37*
G36*
X744730D02*
X733460D01*
Y340806D01*
X740806Y333460D01*
X744730D01*
Y344730D01*
D02*
G37*
G36*
X324540Y331980D02*
X313270D01*
Y320710D01*
X317194D01*
X324540Y328056D01*
Y331980D01*
D02*
G37*
G36*
X310730D02*
X299460D01*
Y328056D01*
X306806Y320710D01*
X310730D01*
Y331980D01*
D02*
G37*
%LPD*%
G36*
X640896Y352735D02*
X641454Y352274D01*
X642030Y351868D01*
X642623Y351516D01*
X643234Y351217D01*
X643863Y350974D01*
X644510Y350784D01*
X645175Y350648D01*
X645857Y350567D01*
X646557Y350540D01*
Y345460D01*
X645857Y345433D01*
X645175Y345352D01*
X644510Y345216D01*
X643863Y345026D01*
X643234Y344782D01*
X642623Y344484D01*
X642030Y344132D01*
X641454Y343726D01*
X640896Y343265D01*
X640356Y342750D01*
Y353250D01*
X640896Y352735D01*
D02*
G37*
G36*
X666854Y340805D02*
X666066Y341690D01*
X665271Y342481D01*
X664469Y343179D01*
X663660Y343784D01*
X662844Y344296D01*
X662021Y344715D01*
X661192Y345041D01*
X660355Y345274D01*
X659512Y345413D01*
X658661Y345460D01*
X659057Y350540D01*
X659871Y350582D01*
X660701Y350709D01*
X661546Y350920D01*
X662408Y351216D01*
X663284Y351596D01*
X664177Y352061D01*
X665085Y352611D01*
X666009Y353245D01*
X667904Y354766D01*
X666854Y340805D01*
D02*
G37*
%LPC*%
G36*
X75194Y222540D02*
X71270D01*
Y211270D01*
X77145D01*
X77162Y216979D01*
X78144Y216009D01*
X80030Y214376D01*
X80935Y213712D01*
X81814Y213151D01*
X82540Y212760D01*
Y215194D01*
X75194Y222540D01*
D02*
G37*
G36*
X68730D02*
X64806D01*
X57460Y215194D01*
Y211270D01*
X68730D01*
Y222540D01*
D02*
G37*
G36*
X77138Y208730D02*
X71270D01*
Y197460D01*
X75194D01*
X82540Y204806D01*
Y207189D01*
X81801Y206793D01*
X80918Y206234D01*
X80009Y205573D01*
X79073Y204810D01*
X77120Y202979D01*
X77138Y208730D01*
D02*
G37*
G36*
X68730D02*
X57460D01*
Y204806D01*
X64806Y197460D01*
X68730D01*
Y208730D01*
D02*
G37*
%LPD*%
D18*
X437800Y336800D02*
X449000Y348000D01*
X416500Y336800D02*
X437800D01*
X449000Y348000D02*
X467000D01*
X653750Y182250D02*
X703524D01*
X706500Y185226D01*
X673750Y348000D02*
X674500Y347250D01*
X635000Y348000D02*
X673750D01*
X652000Y184000D02*
X653750Y182250D01*
X704492Y233258D02*
X706500Y231250D01*
X702750Y235000D02*
X704492Y233258D01*
X653000Y235000D02*
X702750D01*
X416500Y235200D02*
X416600Y235100D01*
X484900D01*
X485000Y235000D01*
X483800Y184200D02*
X484000Y184000D01*
X416700Y184200D02*
X483800D01*
X416500Y184400D02*
X416700Y184200D01*
X930000Y326200D02*
X932472Y328672D01*
X945696D01*
X956000Y338976D01*
Y395000D01*
X934250Y416750D02*
X956000Y395000D01*
X573320Y416750D02*
X934250D01*
X573320D02*
Y515000D01*
X185580Y83820D02*
X185970Y84210D01*
X161290Y83820D02*
X185580D01*
X108500Y235340D02*
X146600D01*
X515000Y515000D02*
X573320D01*
X573320Y515000D02*
Y601680D01*
X573320Y515000D02*
X573320Y515000D01*
X560000Y615000D02*
X573320Y601680D01*
X185970Y541410D02*
X259560Y615000D01*
X560000D01*
D19*
X901529Y260600D02*
X912130Y250000D01*
X930000D01*
X416500Y260600D02*
X901529D01*
X441000Y159140D02*
X444000Y156140D01*
Y44000D02*
Y156140D01*
X431750Y31750D02*
X444000Y44000D01*
X164770Y31750D02*
X431750D01*
X894600Y351600D02*
X930000D01*
X854540Y311540D02*
X894600Y351600D01*
X418820Y311540D02*
X854540D01*
X123740Y159140D02*
X133000Y149880D01*
Y63520D02*
X164770Y31750D01*
X133000Y63520D02*
Y149880D01*
X190060Y263000D02*
X192320Y260740D01*
X140000Y277000D02*
X154000Y263000D01*
X190060D01*
X42232Y277000D02*
X140000D01*
X189465Y410285D02*
X192320Y413140D01*
X180673Y410000D02*
X180958Y410285D01*
X50000Y395000D02*
X148000D01*
X163000Y410000D01*
X180958Y410285D02*
X189465D01*
X163000Y410000D02*
X180673D01*
X136660Y545000D02*
X137660Y544000D01*
X154000D01*
X160000Y538000D01*
Y500000D02*
Y538000D01*
Y500000D02*
X170000Y490000D01*
X189200D01*
X190000Y489200D01*
X418820Y159140D02*
X441000D01*
X929600Y275000D02*
X930000Y275400D01*
X665000Y275000D02*
X929600D01*
X653860Y286140D02*
X665000Y275000D01*
X418820Y286140D02*
X653860D01*
X108470Y209970D02*
X108500Y209940D01*
X70030Y209970D02*
X108470D01*
X70000Y210000D02*
X70030Y209970D01*
X40000Y135972D02*
X42232Y133740D01*
X40000Y135972D02*
Y274768D01*
X42232Y133740D02*
X108500D01*
X40000Y274768D02*
X42232Y277000D01*
X50000Y645000D02*
X50500Y644500D01*
X145500D01*
X146000Y644000D01*
X21232Y108340D02*
X108500D01*
X19000Y110572D02*
Y335978D01*
X21232Y338210D02*
X185970D01*
X19000Y110572D02*
X21232Y108340D01*
X19000Y335978D02*
X21232Y338210D01*
X50000Y545000D02*
X136660D01*
X50000Y495000D02*
X135000D01*
X50000Y445000D02*
X136529D01*
X142989Y438540D01*
X135000Y495000D02*
X165000Y465000D01*
X191990Y489670D02*
X192320Y489340D01*
X108500Y185810D02*
X184637D01*
X108500Y159140D02*
X123740D01*
X439340Y489340D02*
X515000Y565000D01*
X421360Y537600D02*
X438700D01*
X422190Y284870D02*
X422825Y284235D01*
X419750Y414070D02*
X514070D01*
X515000Y415000D01*
X418820Y413140D02*
X419750Y414070D01*
X191260Y465000D02*
X192320Y463940D01*
X418820Y489340D02*
X439340D01*
X422190Y411870D02*
X425380D01*
X418820Y387740D02*
X441240D01*
X142989Y438540D02*
X192320D01*
X191990Y464270D02*
X192320Y463940D01*
X165000Y465000D02*
X191260D01*
X418820Y540140D02*
X421360Y537600D01*
D20*
X190000Y540000D02*
D03*
Y514600D02*
D03*
Y489200D02*
D03*
Y463800D02*
D03*
Y438400D02*
D03*
Y413000D02*
D03*
Y387600D02*
D03*
Y362200D02*
D03*
Y336800D02*
D03*
Y311400D02*
D03*
Y286000D02*
D03*
Y260600D02*
D03*
Y235200D02*
D03*
Y209800D02*
D03*
Y184400D02*
D03*
Y159000D02*
D03*
Y133600D02*
D03*
Y108200D02*
D03*
Y82800D02*
D03*
X416500D02*
D03*
Y108200D02*
D03*
Y133600D02*
D03*
Y159000D02*
D03*
Y184400D02*
D03*
Y209800D02*
D03*
Y235200D02*
D03*
Y260600D02*
D03*
Y286000D02*
D03*
Y311400D02*
D03*
Y336800D02*
D03*
Y362200D02*
D03*
Y387600D02*
D03*
Y413000D02*
D03*
Y438400D02*
D03*
Y463800D02*
D03*
Y489200D02*
D03*
Y514600D02*
D03*
Y540000D02*
D03*
X930000Y173800D02*
D03*
Y199200D02*
D03*
Y224600D02*
D03*
Y250000D02*
D03*
Y275400D02*
D03*
Y300800D02*
D03*
Y326200D02*
D03*
Y351600D02*
D03*
X108500Y209940D02*
D03*
Y184540D02*
D03*
Y159140D02*
D03*
Y133740D02*
D03*
Y108340D02*
D03*
D21*
X485000Y235000D02*
D03*
X653000D02*
D03*
X484000Y184000D02*
D03*
X652000D02*
D03*
X467000Y348000D02*
D03*
X635000D02*
D03*
D22*
X897000Y32000D02*
D03*
X40000Y50000D02*
D03*
X100000Y680000D02*
D03*
X903000D02*
D03*
D23*
X930000Y148400D02*
D03*
X108500Y235340D02*
D03*
D24*
X706500Y182250D02*
D03*
X746000Y346000D02*
D03*
X763500Y183250D02*
D03*
Y231250D02*
D03*
X674500Y347250D02*
D03*
X704500Y233250D02*
D03*
X804000Y87000D02*
D03*
X862000Y522000D02*
D03*
X671000Y526000D02*
D03*
X312000Y333250D02*
D03*
X70000Y210000D02*
D03*
X161290Y83820D02*
D03*
X146000Y644000D02*
D03*
X146600Y235340D02*
D03*
X460000Y665000D02*
D03*
X245000Y670000D02*
D03*
X500500Y68250D02*
D03*
X660000Y675000D02*
D03*
X638500Y61250D02*
D03*
D25*
X50000Y645000D02*
D03*
Y545000D02*
D03*
Y495000D02*
D03*
Y395000D02*
D03*
Y445000D02*
D03*
Y595000D02*
D03*
X515000Y565000D02*
D03*
Y515000D02*
D03*
Y465000D02*
D03*
Y415000D02*
D03*
M02*
