M48
;Layer_Color=9474304
;FILE_FORMAT=2:3
INCH,LZ
;TYPE=PLATED
T01F00S00C0.039
T02F00S00C0.043
T03F00S00C0.059
;TYPE=NON_PLATED
T04F00S00C0.126
%
T01
X00635Y0033
X0197Y00269
X02514Y00241
X03165Y00343
X03006Y00721
Y0091
X02774Y00918
X02781Y00718
X02567Y00724
X02571Y00925
X025Y0137
X02656Y01367
X02937Y01362
X02642Y02071
X03394Y02055
X01839Y0137
X01909Y00925
X01906Y00724
X01228Y01312
X00577Y00927
X00276Y00827
X00575Y02535
X00965Y02638
X01811Y02618
X02598Y02657
T02
X00427Y00427
Y00527
X00748Y00526
Y00426
Y00326
X0164
Y00426
Y00526
X03661Y00584
Y00684
Y00784
Y00884
Y00984
Y01084
Y01184
Y01284
Y01384
X0164Y01426
Y01326
Y01226
Y01126
Y01026
Y00926
Y00826
Y00726
Y00626
X00748
Y00726
Y00826
Y00926
Y01026
Y01126
Y01226
Y01326
Y01426
Y01526
Y01626
Y01726
Y01826
Y01926
Y02026
X0164
Y01926
Y01826
Y01726
Y01626
Y01526
X00427Y00927
Y00827
Y00727
Y00627
X00748Y02126
X0164
T03
X02028Y01634
Y01831
Y02028
X00197Y01949
Y01752
Y01555
Y02146
Y02343
Y02539
X02028Y02224
T04
X00157Y00197
X03531Y00126
X00394Y02677
X03555
M30
